<?xml version="1.0" encoding="utf-8"?>
<!-- Generator: Adobe Illustrator 26.3.1, SVG Export Plug-In . SVG Version: 6.00 Build 0)  -->
<svg version="1.1" id="Layer_1" xmlns="http://www.w3.org/2000/svg" xmlns:xlink="http://www.w3.org/1999/xlink" x="0px" y="0px"
	 viewBox="0 0 1006.68 194.37" style="enable-background:new 0 0 1006.68 194.37;" xml:space="preserve">
<style type="text/css">
	.st0{fill:#242F65;}
	.st1{fill:#FFFFFF;}
</style>
<g>
	<g>
		<path class="st0" d="M1006.68,1.18c0,0-72.97-0.38-78.72-0.38c-10.93,0-21.3,2.14-30.8,6.35c-9.47,4.19-17.82,10.04-24.84,17.37
			c-6.99,7.31-12.55,15.9-16.55,25.54c-4.02,9.68-6.05,20.25-6.05,31.4c0,11.14,2.03,21.75,6.04,31.53
			c4,9.77,9.59,18.39,16.59,25.59c6.99,7.21,15.34,13,24.81,17.2c9.51,4.22,19.88,6.36,30.8,6.36c10.92,0,21.28-2.14,30.8-6.36
			c9.46-4.2,17.81-9.98,24.81-17.19c7.01-7.22,12.59-15.83,16.59-25.59c4.01-9.78,6.04-20.39,6.04-31.53
			C1006.2,70.32,1006.68,1.18,1006.68,1.18z"/>
	</g>
	<g>
		<path class="st1" d="M928.08,115.4c-9.46,0-17.83-3.84-23.08-9.73l-11.38,13.27c8.55,8.19,20.8,13.36,34.46,13.36
			s25.91-5.17,34.46-13.36l-11.38-13.27C945.91,111.56,937.54,115.4,928.08,115.4z"/>
		<path class="st1" d="M964.48,25.95c0,0-33.74-0.17-36.4-0.17c-5.06,0-9.85,0.98-14.24,2.92c-4.38,1.93-8.24,4.62-11.49,7.98
			c-3.23,3.36-5.8,7.31-7.65,11.74c-1.86,4.45-2.8,9.31-2.8,14.43c0,5.12,0.94,10,2.79,14.49c1.85,4.49,4.43,8.45,7.67,11.76
			c3.23,3.31,7.09,5.97,11.47,7.9c4.4,1.94,9.19,2.92,14.24,2.92c5.05,0,9.84-0.98,14.24-2.92c4.38-1.93,8.24-4.59,11.47-7.9
			c3.24-3.32,5.82-7.27,7.67-11.76c1.85-4.5,2.79-9.37,2.79-14.49C964.26,57.73,964.48,25.95,964.48,25.95z M944.7,71.11
			c-0.85,2.44-2.04,4.54-3.56,6.23c-1.5,1.67-3.37,3.02-5.57,4.01c-2.19,0.98-4.71,1.48-7.49,1.48c-2.78,0-5.3-0.5-7.49-1.48
			c-2.2-0.98-4.07-2.33-5.57-4c-1.51-1.69-2.71-3.79-3.56-6.23c-0.87-2.49-1.3-5.27-1.3-8.26c0-2.99,0.44-5.76,1.31-8.26
			c0.85-2.44,2.04-4.54,3.56-6.23c1.49-1.67,3.37-3.02,5.57-4.01c2.19-0.98,4.71-1.48,7.49-1.48c2.77,0,5.29,0.5,7.49,1.48
			c2.2,0.99,4.07,2.33,5.57,4.01c1.51,1.69,2.71,3.79,3.56,6.22c0.87,2.5,1.31,5.28,1.31,8.26C946,65.84,945.56,68.62,944.7,71.11z"
			/>
	</g>
</g>
<g>
	<path d="M54.79,168.78c-14.33,0-27-5.81-34.95-14.74L2.6,174.13c12.95,12.41,31.5,20.24,52.19,20.24s39.25-7.83,52.19-20.24
		l-17.24-20.1C81.8,162.96,69.12,168.78,54.79,168.78z"/>
	<path d="M109.93,33.3c0,0-51.11-0.26-55.13-0.26c-7.66,0-14.91,1.49-21.57,4.42c-6.63,2.92-12.48,6.99-17.4,12.09
		c-4.89,5.09-8.79,11.07-11.59,17.78C1.43,74.07,0,81.43,0,89.19c0,7.76,1.42,15.14,4.23,21.95c2.8,6.8,6.71,12.8,11.62,17.81
		c4.9,5.02,10.74,9.05,17.38,11.97c6.66,2.94,13.92,4.43,21.57,4.43c7.65,0,14.9-1.49,21.57-4.43c6.63-2.92,12.47-6.95,17.37-11.97
		c4.91-5.02,8.82-11.02,11.62-17.82c2.81-6.81,4.23-14.2,4.23-21.95C109.59,81.43,109.93,33.3,109.93,33.3z M79.96,101.7
		c-1.28,3.7-3.1,6.87-5.39,9.44c-2.27,2.53-5.11,4.57-8.43,6.07c-3.32,1.49-7.13,2.24-11.34,2.24c-4.21,0-8.03-0.75-11.35-2.24
		c-3.33-1.49-6.16-3.53-8.43-6.06c-2.29-2.56-4.11-5.74-5.39-9.44c-1.31-3.77-1.98-7.98-1.98-12.51c0-4.52,0.67-8.73,1.98-12.51
		c1.28-3.7,3.1-6.87,5.39-9.43c2.26-2.54,5.1-4.57,8.43-6.07c3.32-1.49,7.14-2.24,11.34-2.24c4.2,0,8.02,0.76,11.34,2.24
		c3.33,1.49,6.17,3.54,8.43,6.07c2.29,2.56,4.11,5.74,5.39,9.43c1.31,3.79,1.98,8,1.98,12.51C81.94,93.7,81.27,97.91,79.96,101.7z"
		/>
</g>
<path d="M657.73,134.86c-7.13,1.56-14.03,1.76-20.52,0.62c-6.51-1.15-12.5-3.51-17.82-7.01c-5.32-3.51-9.9-8.16-13.61-13.84
	c-3.68-5.63-6.35-12.22-7.96-19.58c-1.61-7.36-1.92-14.49-0.94-21.19c0.99-6.76,3.16-12.95,6.45-18.38
	c3.29-5.45,7.72-10.16,13.14-13.99c5.42-3.82,11.84-6.56,19.11-8.14c6.76-1.47,13.6-1.64,20.34-0.49c6.84,1.17,13.22,3.9,18.96,8.09
	l3.03,2.21l-14.13,20.77l-3.22-2.25c-3.35-2.34-6.7-3.96-9.95-4.81c-3.09-0.81-6.67-0.78-10.65,0.09c-3.86,0.84-7.07,2.3-9.54,4.32
	c-2.49,2.04-4.43,4.55-5.78,7.45c-1.39,3.01-2.24,6.37-2.52,9.99c-0.28,3.69-0.01,7.48,0.81,11.25c0.81,3.71,2.18,7.12,4.08,10.15
	c1.88,3,4.16,5.51,6.78,7.44c2.58,1.91,5.5,3.24,8.69,3.95c3.16,0.71,6.63,0.66,10.3-0.14c3.97-0.87,7.21-2.32,9.61-4.32
	c2.5-2.08,4.69-4.87,6.53-8.3l2.02-3.78l20.78,13.91l-1.69,3.11c-3.47,6.39-8.11,11.51-13.8,15.22
	C670.69,130.82,664.46,133.39,657.73,134.86z"/>
<path d="M396.9,134.86c-7.13,1.56-14.03,1.76-20.52,0.62c-6.51-1.15-12.5-3.51-17.82-7.01c-5.32-3.51-9.9-8.16-13.61-13.84
	c-3.68-5.63-6.35-12.22-7.96-19.58c-1.61-7.36-1.92-14.49-0.94-21.19c0.99-6.76,3.16-12.95,6.45-18.38
	c3.29-5.45,7.72-10.16,13.14-13.99c5.42-3.82,11.84-6.56,19.11-8.14c6.76-1.47,13.6-1.64,20.34-0.49c6.84,1.17,13.22,3.9,18.96,8.09
	l3.03,2.21l-14.13,20.77l-3.22-2.25c-3.35-2.34-6.7-3.96-9.95-4.81c-3.09-0.81-6.67-0.78-10.65,0.09c-3.86,0.84-7.07,2.3-9.54,4.32
	c-2.49,2.04-4.43,4.55-5.78,7.45c-1.39,3.01-2.24,6.37-2.52,9.99c-0.28,3.69-0.01,7.48,0.81,11.25c0.81,3.71,2.18,7.12,4.08,10.15
	c1.88,3,4.16,5.51,6.78,7.44c2.58,1.91,5.5,3.24,8.69,3.95c3.16,0.71,6.63,0.66,10.3-0.14c3.97-0.87,7.21-2.32,9.61-4.32
	c2.5-2.08,4.69-4.87,6.53-8.3l2.02-3.78l20.78,13.91l-1.69,3.11c-3.47,6.39-8.11,11.51-13.8,15.22
	C409.86,130.82,403.63,133.39,396.9,134.86z"/>
<path d="M699.5,134.88V60.72l24.51-19.67v93.84H699.5z"/>
<path d="M276.27,137.2c-7.09,0-13.82-1.38-19.99-4.1c-6.15-2.71-11.57-6.44-16.1-11.1c-4.54-4.65-8.17-10.2-10.77-16.51
	c-2.6-6.31-3.92-13.15-3.92-20.34c0-7.19,1.32-14.01,3.93-20.26c2.59-6.22,6.21-11.77,10.74-16.48c4.55-4.73,9.98-8.5,16.12-11.21
	c6.17-2.72,12.9-4.1,19.99-4.1c7.09,0,13.82,1.38,19.99,4.1c6.14,2.71,11.56,6.48,16.12,11.21c4.54,4.73,8.15,10.27,10.75,16.48
	c2.61,6.25,3.93,13.07,3.93,20.26c0,7.18-1.32,14.03-3.92,20.34c-2.6,6.3-6.22,11.86-10.77,16.51c-4.54,4.65-9.96,8.38-16.1,11.09
	C290.08,135.83,283.36,137.2,276.27,137.2z M276.27,57.11c-3.9,0-7.43,0.7-10.51,2.08c-3.09,1.38-5.72,3.27-7.81,5.62
	c-2.13,2.37-3.81,5.31-5,8.74c-1.22,3.5-1.83,7.4-1.83,11.59c0,4.2,0.62,8.09,1.83,11.59c1.19,3.43,2.87,6.37,5,8.75
	c2.1,2.35,4.73,4.24,7.81,5.62c3.08,1.38,6.61,2.08,10.52,2.08c3.9,0,7.44-0.7,10.51-2.08c3.08-1.38,5.71-3.27,7.82-5.62
	c2.13-2.38,3.81-5.32,4.99-8.75c1.22-3.51,1.83-7.41,1.83-11.59c0-4.18-0.62-8.08-1.83-11.6c-1.19-3.42-2.87-6.36-5-8.74
	c-2.1-2.35-4.73-4.24-7.82-5.63C283.7,57.82,280.16,57.11,276.27,57.11z"/>
<path d="M439.33,134.88V35.42h20.63l3.88,6.81c1.59-1.46,3.32-2.77,5.15-3.91c2.57-1.58,5.41-2.86,8.44-3.8
	c3.08-0.94,6.22-1.42,9.33-1.42c3.15,0,6.08,0.46,8.71,1.37l2.72,0.94l-1.06,26.56l-4.74-1.34c-1.25-0.35-2.5-0.65-3.76-0.89
	c-1.13-0.21-2.27-0.32-3.37-0.32c-7.11,0-12.32,1.93-15.93,5.89c-3.65,4.01-5.5,10.62-5.5,19.63v49.92H439.33z"/>
<path d="M822.5,130.61c-0.24-2.38-0.42-4.89-0.54-7.52c-0.12-2.66-0.18-5.56-0.18-8.72V67.55c0-4.46-0.81-8.8-2.4-12.92
	c-1.63-4.19-4.17-7.95-7.55-11.17c-3.36-3.19-7.67-5.76-12.81-7.61c-5.06-1.82-11.1-2.74-17.98-2.74c-0.01,0-0.01,0.01-0.02,0.01
	l0-0.01h-35.48v21.71h36.04c2.9,0.04,5.42,0.46,7.45,1.31c2.11,0.89,3.81,2.04,5.18,3.51c1.38,1.49,2.43,3.18,3.12,5.01
	c0.7,1.88,1.06,3.76,1.06,5.6h-8.4c-6.9,0-13.5,0.58-19.6,1.71c-6.3,1.17-11.91,3.15-16.66,5.86c-4.94,2.82-8.9,6.54-11.77,11.06
	c-2.93,4.61-4.42,10.32-4.42,16.98c0,5.08,0.94,9.64,2.79,13.55c1.85,3.91,4.41,7.26,7.64,9.94c3.18,2.64,6.91,4.63,11.1,5.94
	c4.09,1.27,8.42,1.92,12.88,1.92c7.25,0,13.77-1.36,19.37-4.06c2.98-1.44,5.76-3.4,8.32-5.87c0.08,1.35,4.45,7.61,4.45,7.61h18.89
	L822.5,130.61z M798.38,92.7c0,2.72-0.39,5.53-1.17,8.35c-0.73,2.66-1.95,5.1-3.62,7.28c-1.62,2.1-3.8,3.84-6.48,5.18
	c-2.66,1.33-6.03,2.01-9.99,2.01c-5.01,0-8.95-0.94-11.68-2.81c-2.3-1.57-3.42-4.25-3.42-8.2c0-2.62,0.72-4.66,2.21-6.25
	c1.75-1.87,4.07-3.37,6.91-4.44c3.09-1.16,6.6-1.97,10.4-2.38c3.99-0.43,7.95-0.65,11.77-0.65h5.05V92.7z"/>
<path d="M589.15,130.61c-0.24-2.38-0.42-4.89-0.54-7.52c-0.12-2.66-0.18-5.56-0.18-8.72V67.55c0-4.46-0.81-8.8-2.4-12.92
	c-1.63-4.19-4.17-7.95-7.55-11.17c-3.36-3.19-7.67-5.76-12.81-7.61c-5.06-1.82-11.1-2.74-17.98-2.74c-0.01,0-0.01,0.01-0.02,0.01
	l0-0.01h-35.48v21.71h36.04c2.9,0.04,5.42,0.46,7.45,1.31c2.11,0.89,3.81,2.04,5.18,3.51c1.38,1.49,2.43,3.18,3.12,5.01
	c0.7,1.88,1.06,3.76,1.06,5.6h-8.4c-6.9,0-13.5,0.58-19.6,1.71c-6.3,1.17-11.91,3.15-16.66,5.86c-4.94,2.82-8.9,6.54-11.77,11.06
	c-2.93,4.61-4.42,10.32-4.42,16.98c0,5.08,0.94,9.64,2.79,13.55c1.85,3.91,4.41,7.26,7.64,9.94c3.18,2.64,6.91,4.63,11.1,5.94
	c4.09,1.27,8.42,1.92,12.88,1.92c7.25,0,13.77-1.36,19.37-4.06c2.98-1.44,5.76-3.4,8.32-5.87c0.08,1.35,4.45,7.61,4.45,7.61h18.89
	L589.15,130.61z M565.03,92.7c0,2.72-0.39,5.53-1.17,8.35c-0.73,2.66-1.95,5.1-3.62,7.28c-1.62,2.1-3.8,3.84-6.48,5.18
	c-2.66,1.33-6.03,2.01-9.99,2.01c-5.01,0-8.95-0.94-11.68-2.81c-2.3-1.57-3.42-4.25-3.42-8.2c0-2.62,0.72-4.66,2.21-6.25
	c1.75-1.87,4.07-3.37,6.91-4.44c3.09-1.16,6.6-1.97,10.4-2.38c3.99-0.43,7.95-0.65,11.77-0.65h5.05V92.7z"/>
<path d="M711.75,33.3c-4.43,0-8.28-1.67-11.45-4.96c-3.13-3.25-4.72-7.18-4.72-11.69c0-4.5,1.59-8.43,4.71-11.69
	C703.47,1.67,707.32,0,711.75,0c4.43,0,8.28,1.67,11.45,4.96c3.13,3.25,4.71,7.18,4.71,11.69c0,4.5-1.59,8.43-4.71,11.69
	C720.04,31.63,716.18,33.3,711.75,33.3z"/>
<path d="M216.29,70.13c-1.87-6.1-4.54-11.95-7.95-17.38c-3.49-5.55-7.88-10.26-13.04-13.99c-5.22-3.76-11.25-6.31-17.93-7.58
	c-6.74-1.27-14.33-0.64-22.56,1.88c-6.93,2.12-13.05,5.43-18.17,9.84c-5.12,4.4-9.17,9.62-12.05,15.52
	c-2.86,5.86-4.58,12.33-5.1,19.23c-0.53,6.89,0.31,13.99,2.5,21.13c2.17,7.1,5.34,13.46,9.42,18.91c4.11,5.5,9,9.97,14.55,13.28
	c5.59,3.34,11.86,5.42,18.65,6.18c6.77,0.76,13.9,0.02,21.18-2.21c17.57-5.38,29.41-16.32,35.19-32.52l-22.84-8.81
	c-1.75,4.57-4.02,8.54-6.74,11.8c-2.53,3.04-5.89,5.16-10.27,6.5c-3.31,1.01-6.73,1.44-10.16,1.28c-3.41-0.16-6.61-0.88-9.52-2.13
	c-2.87-1.24-5.46-3.04-7.7-5.37c-1.32-1.37-2.41-2.9-3.29-4.62l13.17-4.03l-0.01-0.03l55.68-17.04L216.29,70.13z M155.12,76.42
	l-1.74,0.53l-3.35,1.03l-1.41,19.25c-0.75-1.91-1.55-4.36-2.62-7.83c-1.67-5.46-1.97-9.58-1.97-9.58c-0.13-1.38-0.12-2.82,0.02-4.31
	c0.28-3,1.1-5.94,2.43-8.74c1.31-2.74,3.21-5.27,5.67-7.51c2.41-2.19,5.36-3.83,8.78-4.88c3.59-1.1,6.9-1.49,9.85-1.18
	c2.94,0.32,5.48,1.16,7.77,2.56c2.3,1.41,4.32,3.33,5.99,5.71c1.07,1.52,2.03,3.22,2.88,5.06L155.12,76.42z"/>
</svg>
