<?xml version="1.0" encoding="utf-8"?>
<!-- Generator: Adobe Illustrator 26.3.1, SVG Export Plug-In . SVG Version: 6.00 Build 0)  -->
<svg version="1.1" id="Layer_1" xmlns="http://www.w3.org/2000/svg" xmlns:xlink="http://www.w3.org/1999/xlink" x="0px" y="0px"
	 viewBox="0 0 201.15 40.63" style="enable-background:new 0 0 201.15 40.63;" xml:space="preserve">
<style type="text/css">
	.st0{fill:#005D92;}
	.st1{fill:#82620B;}
	.st2{fill:#009854;}
	.st3{fill:#FAB719;}
</style>
<path class="st0" d="M85.74,24.33h6.81V22.1h-3.84v-0.06L90,19.85c1.25-2.08,2.48-4.48,2.48-7.09c0-2.31-1.06-3.82-3.37-3.82
	c-2.23,0-3.46,1.42-3.46,3.54v0.93h2.29v-0.93c0-0.72,0.25-1.36,1.02-1.36s1.02,0.74,1.04,1.57v0.42c0,1.53-0.64,3.27-1.7,5.16
	l-2.57,4.39V24.33z M77.59,24.33h6.81V22.1h-3.84v-0.06l1.29-2.19c1.25-2.08,2.48-4.48,2.48-7.09c0-2.31-1.06-3.82-3.37-3.82
	c-2.23,0-3.46,1.42-3.46,3.54v0.93h2.29v-0.93c0-0.72,0.25-1.36,1.02-1.36s1.02,0.74,1.04,1.57v0.42c0,1.53-0.64,3.27-1.7,5.16
	l-2.57,4.39V24.33z M72.43,22.38c-0.76,0-1.15-0.55-1.15-1.12v-9.02c0-0.57,0.4-1.08,1.15-1.08c0.74,0,1.17,0.49,1.17,1.08v9
	C73.6,21.81,73.26,22.38,72.43,22.38 M72.43,24.54c2.02,0,3.71-1.08,3.71-3.37v-8.89c0-2.25-1.76-3.31-3.71-3.31
	c-1.95,0-3.71,1.08-3.71,3.33v8.87C68.72,23.44,70.37,24.54,72.43,24.54 M60.57,24.33h6.81V22.1h-3.84v-0.06l1.29-2.19
	c1.25-2.08,2.48-4.48,2.48-7.09c0-2.31-1.06-3.82-3.37-3.82c-2.23,0-3.46,1.42-3.46,3.54v0.93h2.29v-0.93
	c0-0.72,0.25-1.36,1.02-1.36c0.76,0,1.02,0.74,1.04,1.57v0.42c0,1.53-0.64,3.27-1.7,5.16l-2.57,4.39V24.33z M52.92,24.54
	c2.29,0,3.25-1.51,3.25-3.06c0-1.27-0.66-2.25-1.85-3.37l-1.08-1.02c-0.68-0.62-1.08-1.06-1.08-1.55c0-0.49,0.25-0.89,0.87-0.89
	c0.62,0,0.89,0.47,0.98,1.4l2.14-0.06c-0.13-2.29-1.38-3.18-3.08-3.18c-2.29,0-3.18,1.55-3.18,3.01c0,1.32,0.72,2.27,1.72,3.14
	l0.91,0.85c0.78,0.68,1.29,1.25,1.29,1.89c0,0.64-0.32,0.95-0.83,0.95c-0.68,0-0.98-0.53-1.04-1.38l-2.31,0.06
	C49.8,23.63,51.27,24.54,52.92,24.54 M44.28,17.77v-1.8c0-0.61,0.32-1.19,1.04-1.19c0.74,0,1.02,0.55,1.02,1.17v1.83H44.28z
	 M45.38,24.56c1.19,0,2.19-0.25,3.06-0.68l-0.47-1.8c-0.53,0.19-1.34,0.44-2.1,0.44c-1.02,0-1.59-0.55-1.59-1.61v-1.36h4.29v-3.48
	c0-1.97-1.19-3.29-3.25-3.29c-1.97,0-3.52,1.27-3.52,3.52v4.9C41.8,23.46,43.28,24.56,45.38,24.56 M34.97,11.83
	c0.15-0.62,0.32-0.78,0.74-0.78c0.66,0,1.65,0.62,2.46,0.62c1.12,0,1.76-1.12,1.93-2.33l-1.19-0.3c-0.19,0.53-0.36,0.78-0.78,0.78
	c-0.83,0-1.65-0.62-2.52-0.62c-1.1,0-1.72,1.06-1.93,2.34L34.97,11.83z M36.9,22.55c-0.74,0-1.06-0.55-1.06-1.19v-5.31
	c0-0.66,0.3-1.23,1.04-1.23c0.7,0,1.06,0.55,1.06,1.21v5.31C37.94,21.95,37.71,22.55,36.9,22.55 M36.88,24.54
	c1.95,0,3.56-1.06,3.56-3.35v-5.11c0-2.23-1.65-3.29-3.56-3.29s-3.54,1.17-3.54,3.37v5.05C33.34,23.48,34.84,24.54,36.88,24.54
	 M28.75,28.4c1.25,0,2.33-0.64,2.33-1.7c0-1.1-1.17-1.32-2.04-1.32l0.21-0.89c1.7-0.17,2.78-1.17,2.78-2.86v-1.02h-2.23v0.89
	c0,0.49-0.23,1.04-1,1.04c-0.74,0-1.04-0.55-1.04-1.23v-5.31c0-0.66,0.32-1.19,1.04-1.19c0.7,0,1,0.47,1,1.02v0.89h2.23v-1.06
	c0-1.65-1.25-2.89-3.27-2.89c-1.91,0-3.5,1.19-3.5,3.39v5.07c0,1.97,1.21,3.08,2.95,3.27l-0.4,1.72l0.76,0.06
	c0.4,0.02,0.79,0.13,0.79,0.47c0,0.32-0.21,0.47-0.72,0.47c-0.42,0-1.04-0.08-1.61-0.23v1.17C27.64,28.36,28.3,28.4,28.75,28.4
	 M21.28,11.56h2.5V8.82h-2.5V11.56z M21.28,24.33h2.5V13.04h-2.5V24.33z M15.58,17.77v-1.8c0-0.61,0.32-1.19,1.04-1.19
	c0.74,0,1.02,0.55,1.02,1.17v1.83H15.58z M16.69,24.56c1.19,0,2.18-0.25,3.05-0.68l-0.47-1.8c-0.53,0.19-1.34,0.44-2.1,0.44
	c-1.02,0-1.59-0.55-1.59-1.61v-1.36h4.29v-3.48c0-1.97-1.19-3.29-3.25-3.29c-1.97,0-3.52,1.27-3.52,3.52v4.9
	C13.1,23.46,14.59,24.56,16.69,24.56 M10.57,24.5c0.49,0,0.98-0.09,1.4-0.25v-2.1c-0.19,0.04-0.36,0.06-0.53,0.06
	c-0.47,0-0.59-0.28-0.59-0.62V9.2h-2.5v13.18C8.34,23.63,8.98,24.5,10.57,24.5 M0,24.33h6.96v-2.29H2.65v-4.37h3.42v-2.29H2.65
	v-3.91h4.29V9.2H0V24.33z"/>
<g>
	<path d="M107.61,21.48v-7.6c0-1.69,1.13-2.86,2.99-2.86c1.75,0,2.77,1.12,2.77,2.48v1.42h-1.08v-1.24c0-0.97-0.63-1.66-1.71-1.66
		c-1.3,0-1.78,0.9-1.78,1.95v7.38c0,1.15,0.65,1.85,1.8,1.85c1.3,0,1.71-0.77,1.71-1.69v-3.21h-1.8v-0.95h2.9v4.25
		c0,1.55-1.03,2.63-2.79,2.63C108.78,24.24,107.61,23.25,107.61,21.48z"/>
	<path d="M115.08,21.65v-4.48c0-1.67,0.99-2.65,2.45-2.65s2.2,1.01,2.2,2.47v2.68h-3.53v1.8c0,1.19,0.4,1.8,1.58,1.8
		c0.61,0,1.13-0.23,1.51-0.45l0.32,0.83c-0.52,0.42-1.24,0.59-2,0.59C116.03,24.24,115.08,23.43,115.08,21.65z M118.68,18.78v-1.87
		c0-0.68-0.29-1.44-1.24-1.44c-0.9,0-1.24,0.77-1.24,1.48v1.84H118.68z"/>
	<path d="M121.27,21.72v-4.7c0-1.62,1.08-2.5,2.45-2.5c1.39,0,2.41,0.83,2.41,2.43v4.74c0,1.75-1.04,2.56-2.45,2.56
		C122.17,24.24,121.27,23.34,121.27,21.72z M125,21.76v-4.83c0-0.77-0.38-1.48-1.31-1.48c-0.94,0-1.3,0.72-1.3,1.5v4.83
		c0,0.77,0.38,1.51,1.33,1.51C124.73,23.29,125,22.53,125,21.76z"/>
	<path d="M127.81,26.65l0.4-0.9c0.54,0.31,1.03,0.43,1.6,0.43c1.04,0,1.58-0.56,1.58-1.67v-1.75h-0.04
		c-0.34,0.79-1.12,1.13-1.73,1.13c-1.28,0-1.87-0.96-1.87-2.07v-5.15c0-1.42,0.94-2.16,2.02-2.16c0.59,0,1.37,0.32,1.66,1.08h0.02
		v-0.92h1.06v9.74c0,1.8-1.06,2.72-2.7,2.72C129.03,27.14,128.36,26.98,127.81,26.65z M131.39,21.11v-3.96
		c0-0.97-0.67-1.73-1.37-1.73c-0.68,0-1.17,0.49-1.17,1.37v4.86c0,0.63,0.31,1.3,1.19,1.3C130.78,22.94,131.39,22.1,131.39,21.11z"
		/>
	<path d="M134.65,14.72h1.1v1.03h0.02c0.38-0.83,1.01-1.12,1.66-1.12c0.13,0,0.31,0,0.41,0.05v1.1c-0.22-0.02-0.43-0.04-0.58-0.04
		c-0.86,0-1.49,0.5-1.49,1.53v6.81h-1.12V14.72z"/>
	<path d="M138.82,21.43c0-1.82,1.12-3.01,2.67-3.01h0.85v-1.95c0-0.67-0.4-1.06-1.13-1.06c-0.68,0-1.13,0.36-1.13,1.03v1.01h-1.04
		v-1.01c0-1.12,0.86-1.93,2.3-1.93c1.3,0,2.12,0.79,2.12,1.91v5.35c0,0.65,0.04,1.85,0.05,2.3h-1.01c0-0.18-0.04-0.67-0.04-1.04
		h-0.05c-0.32,0.86-1.12,1.21-1.69,1.21C139.67,24.24,138.82,23.36,138.82,21.43z M142.33,21.7v-2.48h-0.81
		c-0.76,0-1.58,0.49-1.58,2.11c0,1.42,0.54,2,1.15,2C141.83,23.32,142.33,22.55,142.33,21.7z"/>
	<path d="M145.88,15.63h-0.95v-0.9h0.95v-1.94c0-1.01,0.65-1.71,1.71-1.71c0.23,0,0.52,0,0.79,0.09v0.88
		c-0.2-0.04-0.41-0.05-0.63-0.05c-0.43,0-0.77,0.29-0.77,0.85v1.89h1.22v0.9h-1.22v8.44h-1.1V15.63z"/>
	<path d="M149.75,11.17h1.12V13h-1.12V11.17z M149.75,14.72h1.12v9.36h-1.12V14.72z"/>
	<path d="M152.61,21.43c0-1.82,1.12-3.01,2.67-3.01h0.85v-1.95c0-0.67-0.4-1.06-1.13-1.06c-0.68,0-1.13,0.36-1.13,1.03v1.01h-1.04
		v-1.01c0-1.12,0.86-1.93,2.3-1.93c1.3,0,2.12,0.79,2.12,1.91v5.35c0,0.65,0.04,1.85,0.05,2.3h-1.01c0-0.18-0.04-0.67-0.04-1.04
		h-0.05c-0.32,0.86-1.12,1.21-1.69,1.21C153.46,24.24,152.61,23.36,152.61,21.43z M156.12,21.7v-2.48h-0.81
		c-0.76,0-1.58,0.49-1.58,2.11c0,1.42,0.54,2,1.15,2C155.62,23.32,156.12,22.55,156.12,21.7z"/>
	<path d="M161.83,22.3V16.6c0-1.28,0.88-2.09,2-2.09c0.65,0,1.3,0.31,1.62,0.97h0.02v-4.25h1.13v12.84h-1.04l-0.02-1.1h-0.05
		c-0.41,0.97-1.21,1.24-1.8,1.24C162.38,24.22,161.83,23.3,161.83,22.3z M165.48,21.32v-4.07c0-0.97-0.59-1.8-1.35-1.8
		c-0.68,0-1.19,0.4-1.19,1.35v5.19c0,0.72,0.34,1.26,1.17,1.26C164.89,23.25,165.48,22.35,165.48,21.32z"/>
	<path d="M168.49,21.72v-4.7c0-1.62,1.08-2.5,2.45-2.5c1.39,0,2.41,0.83,2.41,2.43v4.74c0,1.75-1.04,2.56-2.45,2.56
		C169.39,24.24,168.49,23.34,168.49,21.72z M172.21,21.76v-4.83c0-0.77-0.38-1.48-1.31-1.48c-0.94,0-1.3,0.72-1.3,1.5v4.83
		c0,0.77,0.38,1.51,1.33,1.51C171.94,23.29,172.21,22.53,172.21,21.76z"/>
	<path d="M177.3,11.24h1.21l1.87,10.48h0.04l1.91-10.48h1.1L181,24.19h-1.21L177.3,11.24z"/>
	<path d="M184.59,21.72v-4.7c0-1.62,1.08-2.5,2.45-2.5c1.39,0,2.41,0.83,2.41,2.43v4.74c0,1.75-1.04,2.56-2.45,2.56
		C185.5,24.24,184.59,23.34,184.59,21.72z M188.32,21.76v-4.83c0-0.77-0.38-1.48-1.31-1.48c-0.94,0-1.3,0.72-1.3,1.5v4.83
		c0,0.77,0.38,1.51,1.33,1.51C188.05,23.29,188.32,22.53,188.32,21.76z"/>
	<path d="M191.74,22.87v-7.2h-0.97v-0.94h0.97v-2.12h1.1v2.12h1.51v0.94h-1.51v6.88c0,0.49,0.18,0.67,0.56,0.67
		c0.27,0,0.58-0.05,0.79-0.13v0.9c-0.36,0.13-0.68,0.2-1.04,0.2C192.42,24.19,191.74,23.88,191.74,22.87z"/>
	<path d="M195.54,21.72v-4.7c0-1.62,1.08-2.5,2.45-2.5c1.39,0,2.41,0.83,2.41,2.43v4.74c0,1.75-1.04,2.56-2.45,2.56
		C196.44,24.24,195.54,23.34,195.54,21.72z M199.27,21.76v-4.83c0-0.77-0.38-1.48-1.31-1.48s-1.3,0.72-1.3,1.5v4.83
		c0,0.77,0.38,1.51,1.33,1.51C199,23.29,199.27,22.53,199.27,21.76z"/>
</g>
<polygon class="st1" points="100.6,0 100.6,0.08 100.6,3.07 102.02,3.05 "/>
<polygon class="st2" points="98.63,0 97.06,0.02 97.06,40.63 98.63,34.76 "/>
<polygon class="st3" points="99.03,0 99.03,34.76 100.59,38.53 100.59,0 "/>
</svg>
