<?xml version="1.0" encoding="utf-8"?>
<!-- Generator: Adobe Illustrator 26.3.1, SVG Export Plug-In . SVG Version: 6.00 Build 0)  -->
<svg version="1.1" id="Layer_1" xmlns="http://www.w3.org/2000/svg" xmlns:xlink="http://www.w3.org/1999/xlink" x="0px" y="0px"
	 viewBox="0 0 103.43 40.63" style="enable-background:new 0 0 103.43 40.63;" xml:space="preserve">
<style type="text/css">
	.st0{fill:#005D92;}
	.st1{fill:#82620B;}
	.st2{fill:#009854;}
	.st3{fill:#FAB719;}
</style>
<path class="st0" d="M95.93,20.08h6.81v-2.23H98.9v-0.06l1.29-2.19c1.25-2.08,2.48-4.48,2.48-7.09c0-2.31-1.06-3.82-3.37-3.82
	c-2.23,0-3.46,1.42-3.46,3.54v0.93h2.29V8.24c0-0.72,0.25-1.36,1.02-1.36s1.02,0.74,1.04,1.57v0.42c0,1.53-0.64,3.27-1.7,5.16
	l-2.57,4.39V20.08z M87.78,20.08h6.81v-2.23h-3.84v-0.06l1.29-2.19c1.25-2.08,2.48-4.48,2.48-7.09c0-2.31-1.06-3.82-3.37-3.82
	c-2.23,0-3.46,1.42-3.46,3.54v0.93h2.29V8.24c0-0.72,0.25-1.36,1.02-1.36s1.02,0.74,1.04,1.57v0.42c0,1.53-0.64,3.27-1.7,5.16
	l-2.57,4.39V20.08z M82.62,18.13c-0.76,0-1.15-0.55-1.15-1.12V7.99c0-0.57,0.4-1.08,1.15-1.08c0.74,0,1.17,0.49,1.17,1.08v9
	C83.79,17.56,83.45,18.13,82.62,18.13 M82.62,20.29c2.02,0,3.71-1.08,3.71-3.37V8.03c0-2.25-1.76-3.31-3.71-3.31
	c-1.95,0-3.71,1.08-3.71,3.33v8.87C78.9,19.19,80.56,20.29,82.62,20.29 M70.76,20.08h6.81v-2.23h-3.84v-0.06l1.29-2.19
	c1.25-2.08,2.48-4.48,2.48-7.09c0-2.31-1.06-3.82-3.37-3.82c-2.23,0-3.46,1.42-3.46,3.54v0.93h2.29V8.24c0-0.72,0.25-1.36,1.02-1.36
	s1.02,0.74,1.04,1.57v0.42c0,1.53-0.64,3.27-1.7,5.16l-2.57,4.39V20.08z M63.11,20.29c2.29,0,3.25-1.51,3.25-3.06
	c0-1.27-0.66-2.25-1.85-3.37l-1.08-1.02c-0.68-0.62-1.08-1.06-1.08-1.55c0-0.49,0.25-0.89,0.87-0.89c0.62,0,0.89,0.47,0.98,1.4
	l2.14-0.06c-0.13-2.29-1.38-3.18-3.08-3.18c-2.29,0-3.18,1.55-3.18,3.01c0,1.32,0.72,2.27,1.72,3.14l0.91,0.85
	c0.78,0.68,1.29,1.25,1.29,1.89c0,0.64-0.32,0.95-0.83,0.95c-0.68,0-0.98-0.53-1.04-1.38l-2.31,0.06
	C59.99,19.38,61.46,20.29,63.11,20.29 M54.47,13.53v-1.8c0-0.61,0.32-1.19,1.04-1.19c0.74,0,1.02,0.55,1.02,1.17v1.83H54.47z
	 M55.57,20.32c1.19,0,2.19-0.25,3.06-0.68l-0.47-1.8c-0.53,0.19-1.34,0.44-2.1,0.44c-1.02,0-1.59-0.55-1.59-1.61v-1.36h4.29v-3.48
	c0-1.97-1.19-3.29-3.25-3.29c-1.97,0-3.52,1.27-3.52,3.52v4.9C51.99,19.21,53.47,20.32,55.57,20.32 M45.16,7.58
	c0.15-0.62,0.32-0.78,0.74-0.78c0.66,0,1.65,0.62,2.46,0.62c1.12,0,1.76-1.12,1.93-2.33l-1.19-0.3c-0.19,0.53-0.36,0.78-0.78,0.78
	c-0.83,0-1.65-0.62-2.52-0.62c-1.1,0-1.72,1.06-1.93,2.34L45.16,7.58z M47.09,18.3c-0.74,0-1.06-0.55-1.06-1.19v-5.31
	c0-0.66,0.3-1.23,1.04-1.23c0.7,0,1.06,0.55,1.06,1.21v5.31C48.13,17.71,47.9,18.3,47.09,18.3 M47.07,20.29
	c1.95,0,3.56-1.06,3.56-3.35v-5.11c0-2.23-1.65-3.29-3.56-3.29s-3.54,1.17-3.54,3.37v5.05C43.53,19.23,45.03,20.29,47.07,20.29
	 M38.93,24.16c1.25,0,2.33-0.64,2.33-1.7c0-1.1-1.17-1.32-2.04-1.32l0.21-0.89c1.7-0.17,2.78-1.17,2.78-2.86v-1.02h-2.23v0.89
	c0,0.49-0.23,1.04-1,1.04c-0.74,0-1.04-0.55-1.04-1.23v-5.31c0-0.66,0.32-1.19,1.04-1.19c0.7,0,1,0.47,1,1.02v0.89h2.23v-1.06
	c0-1.65-1.25-2.89-3.27-2.89c-1.91,0-3.5,1.19-3.5,3.39v5.07c0,1.97,1.21,3.08,2.95,3.27L38,21.99l0.76,0.06
	c0.4,0.02,0.79,0.13,0.79,0.47c0,0.32-0.21,0.47-0.72,0.47c-0.42,0-1.04-0.08-1.61-0.23v1.17C37.83,24.11,38.49,24.16,38.93,24.16
	 M31.47,7.31h2.5V4.57h-2.5V7.31z M31.47,20.08h2.5V8.79h-2.5V20.08z M25.77,13.53v-1.8c0-0.61,0.32-1.19,1.04-1.19
	c0.74,0,1.02,0.55,1.02,1.17v1.83H25.77z M26.87,20.32c1.19,0,2.18-0.25,3.05-0.68l-0.47-1.8c-0.53,0.19-1.34,0.44-2.1,0.44
	c-1.02,0-1.59-0.55-1.59-1.61v-1.36h4.29v-3.48c0-1.97-1.19-3.29-3.25-3.29c-1.97,0-3.52,1.27-3.52,3.52v4.9
	C23.29,19.21,24.77,20.32,26.87,20.32 M20.76,20.25c0.49,0,0.98-0.09,1.4-0.25v-2.1c-0.19,0.04-0.36,0.06-0.53,0.06
	c-0.47,0-0.59-0.28-0.59-0.62V4.95h-2.5v13.18C18.53,19.38,19.17,20.25,20.76,20.25 M10.19,20.08h6.96v-2.29h-4.31v-4.37h3.42v-2.29
	h-3.42V7.22h4.29V4.95h-6.94V20.08z"/>
<g>
	<path d="M10.64,34.69v-7.6c0-1.69,1.13-2.86,2.99-2.86c1.75,0,2.77,1.12,2.77,2.48v1.42h-1.08v-1.24c0-0.97-0.63-1.66-1.71-1.66
		c-1.3,0-1.78,0.9-1.78,1.95v7.38c0,1.15,0.65,1.85,1.8,1.85c1.3,0,1.71-0.77,1.71-1.69v-3.21h-1.8v-0.95h2.9v4.25
		c0,1.55-1.03,2.63-2.79,2.63C11.81,37.45,10.64,36.45,10.64,34.69z"/>
	<path d="M18.11,34.85v-4.48c0-1.67,0.99-2.65,2.45-2.65s2.2,1.01,2.2,2.47v2.68h-3.53v1.8c0,1.19,0.4,1.8,1.58,1.8
		c0.61,0,1.13-0.23,1.51-0.45l0.32,0.83c-0.52,0.42-1.24,0.59-2,0.59C19.07,37.45,18.11,36.63,18.11,34.85z M21.71,31.99v-1.87
		c0-0.68-0.29-1.44-1.24-1.44c-0.9,0-1.24,0.77-1.24,1.48v1.84H21.71z"/>
	<path d="M24.31,34.92v-4.7c0-1.62,1.08-2.5,2.45-2.5c1.39,0,2.41,0.83,2.41,2.43v4.74c0,1.75-1.04,2.56-2.45,2.56
		C25.21,37.45,24.31,36.54,24.31,34.92z M28.03,34.96v-4.83c0-0.77-0.38-1.48-1.31-1.48c-0.94,0-1.3,0.72-1.3,1.5v4.83
		c0,0.77,0.38,1.51,1.33,1.51C27.76,36.49,28.03,35.73,28.03,34.96z"/>
	<path d="M30.84,39.86l0.4-0.9c0.54,0.31,1.03,0.43,1.6,0.43c1.04,0,1.58-0.56,1.58-1.67v-1.75h-0.04
		c-0.34,0.79-1.12,1.13-1.73,1.13c-1.28,0-1.87-0.96-1.87-2.07v-5.15c0-1.42,0.94-2.16,2.02-2.16c0.59,0,1.37,0.32,1.66,1.08h0.02
		v-0.92h1.06v9.74c0,1.8-1.06,2.72-2.7,2.72C32.06,40.34,31.4,40.18,30.84,39.86z M34.42,34.31v-3.96c0-0.97-0.67-1.73-1.37-1.73
		c-0.68,0-1.17,0.49-1.17,1.37v4.86c0,0.63,0.31,1.3,1.19,1.3C33.81,36.15,34.42,35.3,34.42,34.31z"/>
	<path d="M37.68,27.92h1.1v1.03h0.02c0.38-0.83,1.01-1.12,1.66-1.12c0.13,0,0.31,0,0.41,0.05v1.1c-0.22-0.02-0.43-0.04-0.58-0.04
		c-0.86,0-1.49,0.5-1.49,1.53v6.81h-1.12V27.92z"/>
	<path d="M41.85,34.64c0-1.82,1.12-3.01,2.67-3.01h0.85v-1.95c0-0.67-0.4-1.06-1.13-1.06c-0.68,0-1.13,0.36-1.13,1.03v1.01h-1.04
		v-1.01c0-1.12,0.86-1.93,2.3-1.93c1.3,0,2.12,0.79,2.12,1.91v5.35c0,0.65,0.04,1.85,0.05,2.3h-1.01c0-0.18-0.04-0.67-0.04-1.04
		h-0.05c-0.32,0.86-1.12,1.21-1.69,1.21C42.7,37.45,41.85,36.56,41.85,34.64z M45.37,34.91v-2.48h-0.81c-0.76,0-1.58,0.49-1.58,2.11
		c0,1.42,0.54,2,1.15,2C44.86,36.53,45.37,35.75,45.37,34.91z"/>
	<path d="M48.91,28.84h-0.95v-0.9h0.95v-1.94c0-1.01,0.65-1.71,1.71-1.71c0.23,0,0.52,0,0.79,0.09v0.88
		c-0.2-0.04-0.41-0.05-0.63-0.05c-0.43,0-0.77,0.29-0.77,0.85v1.89h1.22v0.9h-1.22v8.44h-1.1V28.84z"/>
	<path d="M52.78,24.37h1.12v1.84h-1.12V24.37z M52.78,27.92h1.12v9.36h-1.12V27.92z"/>
	<path d="M55.64,34.64c0-1.82,1.12-3.01,2.67-3.01h0.85v-1.95c0-0.67-0.4-1.06-1.13-1.06c-0.68,0-1.13,0.36-1.13,1.03v1.01h-1.04
		v-1.01c0-1.12,0.86-1.93,2.3-1.93c1.3,0,2.12,0.79,2.12,1.91v5.35c0,0.65,0.04,1.85,0.05,2.3h-1.01c0-0.18-0.04-0.67-0.04-1.04
		h-0.05c-0.32,0.86-1.12,1.21-1.69,1.21C56.49,37.45,55.64,36.56,55.64,34.64z M59.15,34.91v-2.48h-0.81
		c-0.76,0-1.58,0.49-1.58,2.11c0,1.42,0.54,2,1.15,2C58.65,36.53,59.15,35.75,59.15,34.91z"/>
	<path d="M64.86,35.5v-5.69c0-1.28,0.88-2.09,2-2.09c0.65,0,1.3,0.31,1.62,0.97h0.02v-4.25h1.13v12.84h-1.04l-0.02-1.1h-0.05
		c-0.41,0.97-1.21,1.24-1.8,1.24C65.42,37.43,64.86,36.51,64.86,35.5z M68.51,34.53v-4.07c0-0.97-0.59-1.8-1.35-1.8
		c-0.68,0-1.19,0.4-1.19,1.35v5.19c0,0.72,0.34,1.26,1.17,1.26C67.92,36.45,68.51,35.55,68.51,34.53z"/>
	<path d="M71.52,34.92v-4.7c0-1.62,1.08-2.5,2.45-2.5c1.39,0,2.41,0.83,2.41,2.43v4.74c0,1.75-1.04,2.56-2.45,2.56
		C72.42,37.45,71.52,36.54,71.52,34.92z M75.25,34.96v-4.83c0-0.77-0.38-1.48-1.31-1.48c-0.94,0-1.3,0.72-1.3,1.5v4.83
		c0,0.77,0.38,1.51,1.33,1.51C74.98,36.49,75.25,35.73,75.25,34.96z"/>
	<path d="M80.34,24.45h1.21l1.87,10.48h0.04l1.91-10.48h1.1l-2.43,12.95h-1.21L80.34,24.45z"/>
	<path d="M87.63,34.92v-4.7c0-1.62,1.08-2.5,2.45-2.5c1.39,0,2.41,0.83,2.41,2.43v4.74c0,1.75-1.04,2.56-2.45,2.56
		C88.53,37.45,87.63,36.54,87.63,34.92z M91.35,34.96v-4.83c0-0.77-0.38-1.48-1.31-1.48c-0.94,0-1.3,0.72-1.3,1.5v4.83
		c0,0.77,0.38,1.51,1.33,1.51C91.08,36.49,91.35,35.73,91.35,34.96z"/>
	<path d="M94.77,36.08v-7.2H93.8v-0.94h0.97v-2.12h1.1v2.12h1.51v0.94h-1.51v6.88c0,0.49,0.18,0.67,0.56,0.67
		c0.27,0,0.58-0.05,0.79-0.13v0.9c-0.36,0.13-0.68,0.2-1.04,0.2C95.46,37.39,94.77,37.08,94.77,36.08z"/>
	<path d="M98.57,34.92v-4.7c0-1.62,1.08-2.5,2.45-2.5c1.39,0,2.41,0.83,2.41,2.43v4.74c0,1.75-1.04,2.56-2.45,2.56
		C99.47,37.45,98.57,36.54,98.57,34.92z M102.3,34.96v-4.83c0-0.77-0.38-1.48-1.31-1.48s-1.3,0.72-1.3,1.5v4.83
		c0,0.77,0.38,1.51,1.33,1.51C102.03,36.49,102.3,35.73,102.3,34.96z"/>
</g>
<polygon class="st1" points="3.53,0 3.53,0.08 3.53,3.07 4.96,3.05 "/>
<polygon class="st2" points="1.56,0 0,0.02 0,40.63 1.56,34.76 "/>
<polygon class="st3" points="1.97,0 1.97,34.76 3.53,38.53 3.53,0 "/>
</svg>
